<mxfile host="app.diagrams.net" modified="2021-09-01T21:13:51.420Z" agent="5.0 (Macintosh; Intel Mac OS X 10_15_7) AppleWebKit/605.1.15 (KHTML, like Gecko) Version/14.1.2 Safari/605.1.15" etag="SYq-lMYvcCOa4WZzSBgp" version="15.0.5" type="github">
  <diagram id="Wx77sodx4MBXV97wqVuu" name="Page-1">
    <mxGraphModel dx="2896" dy="2003" grid="1" gridSize="10" guides="1" tooltips="1" connect="1" arrows="1" fold="1" page="1" pageScale="1" pageWidth="850" pageHeight="1100" math="0" shadow="0">
      <root>
        <mxCell id="0" />
        <mxCell id="1" parent="0" />
        <mxCell id="wRDUU9lmvqr4trSbF5Qy-9" value="" style="whiteSpace=wrap;html=1;aspect=fixed;" parent="1" vertex="1">
          <mxGeometry x="335" y="373" width="80" height="80" as="geometry" />
        </mxCell>
        <mxCell id="wRDUU9lmvqr4trSbF5Qy-6" value="" style="whiteSpace=wrap;html=1;aspect=fixed;" parent="1" vertex="1">
          <mxGeometry x="120" y="400" width="90" height="90" as="geometry" />
        </mxCell>
        <mxCell id="X3pMLEjsBEmRPi6jLI9q-1" value="" style="whiteSpace=wrap;html=1;aspect=fixed;" parent="1" vertex="1">
          <mxGeometry x="-250" y="-90" width="1380" height="1380" as="geometry" />
        </mxCell>
        <mxCell id="X3pMLEjsBEmRPi6jLI9q-2" value="Computer&lt;br&gt;" style="aspect=fixed;pointerEvents=1;shadow=0;dashed=0;html=1;strokeColor=none;labelPosition=center;verticalLabelPosition=bottom;verticalAlign=top;align=center;fillColor=#00188D;shape=mxgraph.azure.computer" parent="1" vertex="1">
          <mxGeometry x="345.55" y="1130" width="88.89" height="80" as="geometry" />
        </mxCell>
        <mxCell id="X3pMLEjsBEmRPi6jLI9q-3" value="Internet&lt;br&gt;" style="aspect=fixed;perimeter=ellipsePerimeter;html=1;align=center;shadow=0;dashed=0;spacingTop=3;image;image=img/lib/active_directory/internet_cloud.svg;" parent="1" vertex="1">
          <mxGeometry x="330" y="890" width="120" height="75.6" as="geometry" />
        </mxCell>
        <mxCell id="X3pMLEjsBEmRPi6jLI9q-5" value="" style="endArrow=classic;html=1;" parent="1" edge="1">
          <mxGeometry width="50" height="50" relative="1" as="geometry">
            <mxPoint x="388.94" y="1110" as="sourcePoint" />
            <mxPoint x="388.94" y="1020" as="targetPoint" />
            <Array as="points">
              <mxPoint x="388.89" y="1070" />
            </Array>
          </mxGeometry>
        </mxCell>
        <mxCell id="X3pMLEjsBEmRPi6jLI9q-20" value="SSH" style="edgeLabel;html=1;align=center;verticalAlign=middle;resizable=0;points=[];" parent="X3pMLEjsBEmRPi6jLI9q-5" vertex="1" connectable="0">
          <mxGeometry x="-0.0889" y="1" relative="1" as="geometry">
            <mxPoint as="offset" />
          </mxGeometry>
        </mxCell>
        <mxCell id="X3pMLEjsBEmRPi6jLI9q-6" value="" style="endArrow=classic;html=1;" parent="1" edge="1">
          <mxGeometry width="50" height="50" relative="1" as="geometry">
            <mxPoint x="389.5" y="870" as="sourcePoint" />
            <mxPoint x="389.5" y="790" as="targetPoint" />
            <Array as="points" />
          </mxGeometry>
        </mxCell>
        <mxCell id="wRDUU9lmvqr4trSbF5Qy-35" value="ssh&lt;br&gt;" style="edgeLabel;html=1;align=center;verticalAlign=middle;resizable=0;points=[];" parent="X3pMLEjsBEmRPi6jLI9q-6" vertex="1" connectable="0">
          <mxGeometry x="-0.15" y="-1" relative="1" as="geometry">
            <mxPoint x="1" as="offset" />
          </mxGeometry>
        </mxCell>
        <mxCell id="X3pMLEjsBEmRPi6jLI9q-7" value="Network Security Group&lt;br&gt;" style="whiteSpace=wrap;html=1;aspect=fixed;" parent="1" vertex="1">
          <mxGeometry y="-20" width="810" height="810" as="geometry" />
        </mxCell>
        <mxCell id="wRDUU9lmvqr4trSbF5Qy-10" value="Virtual Network&lt;br&gt;" style="rhombus;whiteSpace=wrap;html=1;" parent="1" vertex="1">
          <mxGeometry x="155" y="-10" width="460.01" height="510" as="geometry" />
        </mxCell>
        <mxCell id="X3pMLEjsBEmRPi6jLI9q-9" value="WEB-1&lt;br&gt;Ubuntu 20.04.2 LTS&lt;br&gt;DVWA&lt;br&gt;10.0.0.5&lt;br&gt;AllowedIP:&lt;br&gt;10.0.0.4" style="aspect=fixed;html=1;points=[];align=center;image;fontSize=12;image=img/lib/mscae/Virtual_Machine.svg;" parent="1" vertex="1">
          <mxGeometry x="490" y="200" width="50" height="46" as="geometry" />
        </mxCell>
        <mxCell id="X3pMLEjsBEmRPi6jLI9q-10" value="Web-2&lt;br&gt;Ubuntu 20.04.2 LTS&lt;br&gt;DVWA&lt;br&gt;10.0.0.7&lt;br&gt;AllowedIP:&lt;br&gt;10.0.0.4" style="aspect=fixed;html=1;points=[];align=center;image;fontSize=12;image=img/lib/mscae/Virtual_Machine.svg;" parent="1" vertex="1">
          <mxGeometry x="250" y="200" width="50" height="46" as="geometry" />
        </mxCell>
        <mxCell id="wRDUU9lmvqr4trSbF5Qy-16" style="edgeStyle=orthogonalEdgeStyle;rounded=0;orthogonalLoop=1;jettySize=auto;html=1;exitX=0.5;exitY=1;exitDx=0;exitDy=0;exitPerimeter=0;" parent="1" source="X3pMLEjsBEmRPi6jLI9q-11" edge="1">
          <mxGeometry relative="1" as="geometry">
            <mxPoint x="380" y="730" as="targetPoint" />
          </mxGeometry>
        </mxCell>
        <mxCell id="wRDUU9lmvqr4trSbF5Qy-17" value="http" style="edgeLabel;html=1;align=center;verticalAlign=middle;resizable=0;points=[];" parent="wRDUU9lmvqr4trSbF5Qy-16" vertex="1" connectable="0">
          <mxGeometry x="-0.0575" y="-1" relative="1" as="geometry">
            <mxPoint as="offset" />
          </mxGeometry>
        </mxCell>
        <mxCell id="wRDUU9lmvqr4trSbF5Qy-20" style="edgeStyle=orthogonalEdgeStyle;rounded=0;orthogonalLoop=1;jettySize=auto;html=1;exitX=0.11;exitY=0.01;exitDx=0;exitDy=0;exitPerimeter=0;" parent="1" source="X3pMLEjsBEmRPi6jLI9q-11" edge="1">
          <mxGeometry relative="1" as="geometry">
            <mxPoint x="539" y="220" as="targetPoint" />
            <Array as="points">
              <mxPoint x="570" y="351" />
              <mxPoint x="570" y="220" />
              <mxPoint x="539" y="220" />
            </Array>
          </mxGeometry>
        </mxCell>
        <mxCell id="wRDUU9lmvqr4trSbF5Qy-33" value="http" style="edgeLabel;html=1;align=center;verticalAlign=middle;resizable=0;points=[];" parent="wRDUU9lmvqr4trSbF5Qy-20" vertex="1" connectable="0">
          <mxGeometry x="0.1704" y="-1" relative="1" as="geometry">
            <mxPoint as="offset" />
          </mxGeometry>
        </mxCell>
        <mxCell id="wRDUU9lmvqr4trSbF5Qy-21" style="edgeStyle=orthogonalEdgeStyle;rounded=0;orthogonalLoop=1;jettySize=auto;html=1;exitX=0.05;exitY=0.5;exitDx=0;exitDy=0;exitPerimeter=0;" parent="1" source="X3pMLEjsBEmRPi6jLI9q-11" target="X3pMLEjsBEmRPi6jLI9q-10" edge="1">
          <mxGeometry relative="1" as="geometry" />
        </mxCell>
        <mxCell id="wRDUU9lmvqr4trSbF5Qy-32" value="http" style="edgeLabel;html=1;align=center;verticalAlign=middle;resizable=0;points=[];" parent="wRDUU9lmvqr4trSbF5Qy-21" vertex="1" connectable="0">
          <mxGeometry x="-0.5525" y="-1" relative="1" as="geometry">
            <mxPoint y="1" as="offset" />
          </mxGeometry>
        </mxCell>
        <mxCell id="X3pMLEjsBEmRPi6jLI9q-11" value="Load Balancer&lt;br&gt;20.85.246.179" style="verticalLabelPosition=bottom;html=1;verticalAlign=top;align=center;strokeColor=none;fillColor=#00BEF2;shape=mxgraph.azure.azure_load_balancer;" parent="1" vertex="1">
          <mxGeometry x="550.01" y="351" width="50" height="35" as="geometry" />
        </mxCell>
        <mxCell id="X3pMLEjsBEmRPi6jLI9q-12" value="JumpBoxProvisioner NSG&lt;br&gt;&lt;span style=&quot;color: rgb(50 , 49 , 48) ; font-family: &amp;#34;az_ea_font&amp;#34; , &amp;#34;segoe ui&amp;#34; , &amp;#34;az_font&amp;#34; , , , &amp;#34;blinkmacsystemfont&amp;#34; , &amp;#34;roboto&amp;#34; , &amp;#34;oxygen&amp;#34; , &amp;#34;ubuntu&amp;#34; , &amp;#34;cantarell&amp;#34; , &amp;#34;open sans&amp;#34; , &amp;#34;helvetica neue&amp;#34; , sans-serif ; font-size: 13px ; text-align: left ; background-color: rgb(225 , 223 , 221)&quot;&gt;40.121.12.19&lt;br&gt;&lt;/span&gt;10.0.0.4" style="aspect=fixed;html=1;points=[];align=center;image;fontSize=12;image=img/lib/mscae/Azure_Firewall.svg;" parent="1" vertex="1">
          <mxGeometry x="362.18" y="690" width="50" height="50" as="geometry" />
        </mxCell>
        <mxCell id="wRDUU9lmvqr4trSbF5Qy-18" style="edgeStyle=orthogonalEdgeStyle;rounded=0;orthogonalLoop=1;jettySize=auto;html=1;" parent="1" source="X3pMLEjsBEmRPi6jLI9q-14" target="X3pMLEjsBEmRPi6jLI9q-12" edge="1">
          <mxGeometry relative="1" as="geometry" />
        </mxCell>
        <mxCell id="wRDUU9lmvqr4trSbF5Qy-19" value="ssh&lt;br&gt;" style="edgeLabel;html=1;align=center;verticalAlign=middle;resizable=0;points=[];" parent="wRDUU9lmvqr4trSbF5Qy-18" vertex="1" connectable="0">
          <mxGeometry x="-0.162" y="-1" relative="1" as="geometry">
            <mxPoint as="offset" />
          </mxGeometry>
        </mxCell>
        <mxCell id="X3pMLEjsBEmRPi6jLI9q-14" value="JumpBox&lt;br&gt;Ubuntu 20.04.2 LTS&lt;br&gt;Ansible" style="aspect=fixed;html=1;points=[];align=center;image;fontSize=12;image=img/lib/mscae/Virtual_Machine.svg;" parent="1" vertex="1">
          <mxGeometry x="365.44" y="386" width="43.48" height="40" as="geometry" />
        </mxCell>
        <mxCell id="X3pMLEjsBEmRPi6jLI9q-19" value="Docker Container&lt;br&gt;" style="fontColor=#0066CC;verticalAlign=top;verticalLabelPosition=bottom;labelPosition=center;align=center;html=1;outlineConnect=0;fillColor=#CCCCCC;strokeColor=#6881B3;gradientColor=none;gradientDirection=north;strokeWidth=2;shape=mxgraph.networks.server;" parent="1" vertex="1">
          <mxGeometry x="500" y="150" width="30" height="30" as="geometry" />
        </mxCell>
        <mxCell id="wRDUU9lmvqr4trSbF5Qy-5" value="814VM&lt;br&gt;Ubuntu 20.04.2 LTS&lt;br&gt;Elk-Server&lt;br&gt;10.2.0.4&lt;br&gt;AllowedIP:&lt;br&gt;10.0.0.4" style="aspect=fixed;html=1;points=[];align=center;image;fontSize=12;image=img/lib/mscae/Virtual_Machine_2.svg;direction=east;" parent="1" vertex="1">
          <mxGeometry x="357.83" y="50" width="52.17" height="47.99" as="geometry" />
        </mxCell>
        <mxCell id="wRDUU9lmvqr4trSbF5Qy-24" value="" style="endArrow=classic;html=1;" parent="1" source="X3pMLEjsBEmRPi6jLI9q-10" target="wRDUU9lmvqr4trSbF5Qy-5" edge="1">
          <mxGeometry relative="1" as="geometry">
            <mxPoint x="280" y="160" as="sourcePoint" />
            <mxPoint x="380" y="160" as="targetPoint" />
            <Array as="points" />
          </mxGeometry>
        </mxCell>
        <mxCell id="wRDUU9lmvqr4trSbF5Qy-27" value="logs" style="edgeLabel;html=1;align=center;verticalAlign=middle;resizable=0;points=[];" parent="wRDUU9lmvqr4trSbF5Qy-24" vertex="1" connectable="0">
          <mxGeometry x="-0.172" relative="1" as="geometry">
            <mxPoint x="1" as="offset" />
          </mxGeometry>
        </mxCell>
        <mxCell id="wRDUU9lmvqr4trSbF5Qy-28" value="" style="endArrow=classic;html=1;" parent="1" source="X3pMLEjsBEmRPi6jLI9q-9" target="wRDUU9lmvqr4trSbF5Qy-5" edge="1">
          <mxGeometry relative="1" as="geometry">
            <mxPoint x="408.92181839535556" y="200" as="sourcePoint" />
            <mxPoint x="483.4858877218883" y="97.98999999999978" as="targetPoint" />
            <Array as="points" />
          </mxGeometry>
        </mxCell>
        <mxCell id="wRDUU9lmvqr4trSbF5Qy-29" value="logs" style="edgeLabel;html=1;align=center;verticalAlign=middle;resizable=0;points=[];" parent="wRDUU9lmvqr4trSbF5Qy-28" vertex="1" connectable="0">
          <mxGeometry x="-0.172" relative="1" as="geometry">
            <mxPoint x="1" as="offset" />
          </mxGeometry>
        </mxCell>
        <mxCell id="wRDUU9lmvqr4trSbF5Qy-34" value="Docker Container&lt;br&gt;" style="fontColor=#0066CC;verticalAlign=top;verticalLabelPosition=bottom;labelPosition=center;align=center;html=1;outlineConnect=0;fillColor=#CCCCCC;strokeColor=#6881B3;gradientColor=none;gradientDirection=north;strokeWidth=2;shape=mxgraph.networks.server;" parent="1" vertex="1">
          <mxGeometry x="250" y="150" width="30" height="30" as="geometry" />
        </mxCell>
        <mxCell id="wRDUU9lmvqr4trSbF5Qy-36" style="edgeStyle=orthogonalEdgeStyle;rounded=0;orthogonalLoop=1;jettySize=auto;html=1;exitX=0.5;exitY=1;exitDx=0;exitDy=0;exitPerimeter=0;" parent="1" source="wRDUU9lmvqr4trSbF5Qy-34" target="wRDUU9lmvqr4trSbF5Qy-34" edge="1">
          <mxGeometry relative="1" as="geometry" />
        </mxCell>
        <mxCell id="wRDUU9lmvqr4trSbF5Qy-37" value="" style="endArrow=classic;startArrow=classic;html=1;" parent="1" source="X3pMLEjsBEmRPi6jLI9q-14" target="X3pMLEjsBEmRPi6jLI9q-9" edge="1">
          <mxGeometry width="50" height="50" relative="1" as="geometry">
            <mxPoint x="410" y="380" as="sourcePoint" />
            <mxPoint x="460" y="330" as="targetPoint" />
          </mxGeometry>
        </mxCell>
        <mxCell id="wRDUU9lmvqr4trSbF5Qy-38" value="" style="endArrow=classic;startArrow=classic;html=1;" parent="1" source="X3pMLEjsBEmRPi6jLI9q-14" target="X3pMLEjsBEmRPi6jLI9q-10" edge="1">
          <mxGeometry width="50" height="50" relative="1" as="geometry">
            <mxPoint x="340" y="370" as="sourcePoint" />
            <mxPoint x="390" y="320" as="targetPoint" />
          </mxGeometry>
        </mxCell>
        <mxCell id="wRDUU9lmvqr4trSbF5Qy-39" value="" style="endArrow=classic;html=1;" parent="1" source="X3pMLEjsBEmRPi6jLI9q-14" target="wRDUU9lmvqr4trSbF5Qy-5" edge="1">
          <mxGeometry width="50" height="50" relative="1" as="geometry">
            <mxPoint x="340" y="370" as="sourcePoint" />
            <mxPoint x="390" y="320" as="targetPoint" />
          </mxGeometry>
        </mxCell>
      </root>
    </mxGraphModel>
  </diagram>
</mxfile>
